<?xml version="1.0" encoding="UTF-8"?>
<svg width="180px" height="178px" viewBox="0 0 180 178" version="1.1" xmlns="http://www.w3.org/2000/svg" xmlns:xlink="http://www.w3.org/1999/xlink">
    <title>JiJi-hex-2020_180</title>
    <g id="Favicons" stroke="none" stroke-width="1" fill="none" fill-rule="evenodd">
        <g id="JiJi-hex-2020_180" fill-rule="nonzero">
            <g id="Layer_1-2_1_">
                <path d="M158.782088,61.718904 C158.782088,51.3367612 153.21858,41.665726 144.231407,36.4746572 L96.7277116,9.16820611 C87.6691983,3.97713574 76.5421994,3.97713574 67.4836913,9.16820611 L19.9799921,36.4035467 C10.9214787,41.665726 5.35798359,51.2656534 5.35798359,61.718904 L5.35798359,116.402909 C5.35798359,126.785057 10.9214787,136.456084 19.9799924,141.647158 L67.4836877,168.953599 C76.5421958,174.144673 87.6691894,174.144673 96.7277133,168.953599 L144.231409,141.647158 C153.289917,136.456084 158.853413,126.785057 158.853413,116.402909 L158.782088,61.718904 Z" id="Path" fill="#1D9FE6"/>
                <path d="M82.1056909,6.96060246 C87.132568,6.96060246 92.0896284,8.28311665 96.4183385,10.7889338 L142.916976,37.5872533 C151.714019,42.7381001 157.159796,52.1349108 157.159796,62.2973947 L157.159796,115.824423 C157.159796,125.986907 151.714008,135.45332 142.847154,140.534562 L96.4183385,167.263271 C87.5514842,172.344513 76.6599082,172.344513 67.7930539,167.263271 L21.2944272,140.534562 C12.4275649,135.38372 6.9817796,125.986907 6.9817796,115.754824 L6.9817796,62.2973947 C6.9817796,52.1349109 12.4275649,42.6684926 21.2944219,37.5872534 L67.7930486,10.8585389 C72.1217534,8.28311672 77.0788137,6.96060246 82.1056909,6.96060246 M82.1056909,0 C75.8220918,0 69.7479428,1.67054466 64.3021602,4.73320981 L17.8035335,31.5315293 C6.84214148,37.8656785 0.0698177674,49.5594901 0,62.2277844 L0,115.754824 C0.0698177674,128.423118 6.84214134,140.116932 17.8035307,146.520684 L64.3021573,173.249394 C75.3333668,179.583535 88.8780147,179.583535 99.909224,173.249394 L146.407861,146.520684 C157.369249,140.186532 164.14157,128.423118 164.211392,115.754824 L164.211392,62.2973947 C164.14157,49.6291004 157.439071,37.9352835 146.477683,31.5315287 L99.909224,4.73320919 C94.4634389,1.67054466 88.3194732,0 82.1056909,0 Z" id="Shape" fill="#FFFFFF"/>
                <path d="M179.501492,83.4576219 C177.686215,79.1420505 171.54226,75.6617493 168.958995,74.4088387 C162.46594,71.2765676 155.414352,69.4668174 148.153298,69.1187872 C146.826764,69.049177 145.430409,68.9795773 144.034054,68.9795773 C140.33371,68.9795773 136.633366,69.2579972 133.002844,69.6756376 C133.072666,67.7962771 132.933022,65.9169059 132.653755,64.0375453 C131.327222,55.2671926 126.858879,47.3320994 119.946924,41.7636201 C113.942592,36.8215934 106.262637,33.4108972 96.9768721,31.6707466 C92.4387172,30.8354737 87.8307456,30.348231 83.222774,30.348231 C72.3312034,30.348231 62.4868993,32.9236545 53.8993117,38.0048937 C36.5845086,48.2369799 29.4630958,65.4296658 34.8390645,83.94487 C35.3277894,85.5458107 35.886331,87.0771411 36.5146919,88.5388612 C35.3976087,88.1212315 34.1408868,88.0516212 32.9539868,88.3996513 C31.6274482,88.9565017 30.8594538,90.4182324 30.3009122,91.8103529 C30.4405483,91.5319331 26.0420295,90.2790225 25.6231213,90.1398126 C23.9474938,89.7917825 22.271869,89.5829622 20.5962414,89.5829622 C17.52426,89.5829622 14.3824604,90.1398126 11.5199317,91.2535026 C8.51776755,92.3672032 5.7948749,94.0377435 3.35125304,96.056314 C3.1417996,96.2651342 2.86252881,96.4739544 2.65307523,96.682764 C2.79271077,96.9611838 2.86252881,97.309214 2.93234651,97.6572441 C3.28143535,99.8150351 3.28143535,102.042426 3.00216421,104.200206 C3.28143535,104.965877 3.42107074,105.801147 3.42107074,106.636417 C3.42107074,113.248989 3.00216421,120.348802 3.77015958,126.961374 C3.77015958,127.030984 3.77015958,127.100584 3.77015958,127.239794 C4.81742609,127.796644 5.65523951,128.701525 6.14396374,129.745615 C6.77232337,130.998526 7.2610483,132.251436 7.74977253,133.573946 C8.79703904,135.383707 10.053759,137.054248 11.450115,138.655188 C12.7068342,139.351249 13.9635549,139.977699 15.0806394,140.604159 C18.0129862,142.2747 20.8056969,144.154071 23.3191354,146.381461 C27.2987487,148.817672 31.0689066,151.462703 34.9088838,154.038124 C36.165603,154.386154 37.4921417,154.664574 38.748861,155.012604 C47.9648014,157.518425 55.9938447,163.643747 63.1850769,169.769079 C66.8854207,171.02199 70.0272203,173.667021 73.8671975,174.363081 C77.9166301,175.059141 82.3849629,174.780722 86.4343956,174.363081 C94.7427057,173.597411 102.352849,169.073019 109.194981,164.618238 C116.24658,160.024236 123.158535,155.221424 130.629034,151.323483 C137.820266,147.564762 145.430398,144.15406 150.876186,137.959128 C151.155453,137.680708 151.434731,137.402278 151.783819,137.123858 C148.362753,136.984648 144.732221,136.915038 142.218787,136.915038 C139.914799,136.915038 137.959899,136.845428 136.703188,136.775828 C133.142478,136.497408 129.930867,135.174887 126.50979,133.782767 C123.577446,132.529856 120.57528,131.485766 117.43348,130.720106 C115.967303,125.221234 114.221859,119.513532 112.197148,113.80584 L113.034959,113.80584 C114.640769,113.80584 116.24658,113.736229 117.85238,113.597019 C121.064002,113.248989 124.205801,112.552929 127.277779,111.578449 C130.4894,110.464748 133.561378,109.072628 136.423911,107.332477 C139.495888,105.661937 142.428243,103.782566 145.430398,101.833606 C146.407843,101.137545 147.455109,100.511095 148.432565,99.8150351 C151.993275,97.4484345 156.042697,94.8034035 157.648508,94.2465531 C159.533585,93.6897028 162.88484,93.411283 165.887006,93.2024628 C172.380061,92.7152227 177.057849,92.4367922 179.222204,88.8868914 C180.129848,87.2163536 180.269492,85.1977725 179.501492,83.4576219 Z" id="Path" fill="#000000"/>
                <path d="M122.879268,155.917498 C125.462523,154.316557 128.045779,152.854837 130.698856,151.462716 C136.423911,148.469655 142.428243,145.685414 147.385298,141.578663 C142.916965,141.439453 138.727899,141.509053 136.354089,141.369843 C132.8632,141.021813 129.442134,140.116932 126.230512,138.724812 C123.717068,137.750332 121.343269,136.706241 118.760013,135.940571 C118.969469,136.706241 119.109102,137.471901 119.318558,138.167961 C120.645102,143.945264 121.76218,149.931375 122.879268,155.917498 Z" id="Path" fill="#2B2B2B"/>
                <path d="M104.866282,101.972829 C104.866282,102.042439 104.79646,102.112039 104.79646,102.251249 C104.796471,102.112039 104.796471,102.042439 104.866282,101.972829 Z" id="Path" fill="#000000"/>
                <path d="M105.005915,101.346379 L105.005915,101.346379 C105.005915,101.346379 105.075737,101.276769 105.075737,101.207169 L105.005915,101.346379 Z" id="Path" fill="#000000"/>
                <path d="M105.145559,101.067948 L105.355015,100.650308 C105.285193,100.789528 105.215371,100.928738 105.145559,101.067948 Z" id="Path" fill="#000000"/>
                <path d="M110.591337,124.873207 C110.940426,125.986907 111.289514,127.170207 111.638603,128.283897 C111.289514,127.170207 110.940426,125.986907 110.591337,124.873207 Z" id="Path" fill="#2B2B2B"/>
                <path d="M136.214466,100.371888 C145.360598,91.044685 158.207063,86.8683129 171.193172,86.1722526 C171.612082,85.7546229 172.030983,85.3369825 172.519705,84.9889523 C172.589527,84.2928921 172.798972,83.5968319 173.008427,82.9703819 C172.380072,82.4135315 171.751705,81.8566812 171.053528,81.3694412 L171.053528,81.3694412 C159.184507,72.1118377 137.471177,73.5735686 127.138156,75.2441088 C124.275623,85.406582 107.240092,86.7291029 106.960826,97.4484264 C106.681548,113.109793 127.626878,103.643369 136.214466,100.371888 Z" id="Path" fill="#F8A344"/>
                <path d="M174.753871,84.9889523 L174.753871,84.9889523 C174.544416,84.6409222 174.334961,84.2928921 174.055694,84.0144722 L174.055694,84.0144722 C173.776427,83.6664421 173.497149,83.3880116 173.148061,83.0399815 L173.148061,83.0399815 C172.519705,82.4135315 171.821527,81.8566812 171.12335,81.3694412 C172.310249,84.6409222 171.961161,85.0585626 166.096473,85.1281622 C156.880529,85.2673721 152.342375,86.729103 143.615154,92.8544352 C135.655932,98.4229172 124.345446,105.661939 113.314247,104.478639 C108.566636,103.991399 108.70627,99.5366072 109.125181,96.8915867 C107.728825,97.7268569 106.541926,98.8405576 105.56447,100.163068 C100.607405,111.508852 118.550579,109.490271 125.532356,106.98446 C133.491577,104.061009 140.263909,99.2581873 147.734408,94.316166 L147.734408,94.316166 C149.479852,93.2024653 151.295119,91.9495654 153.599096,90.6966549 L153.599096,90.6966549 C154.157641,90.3486247 154.785996,90.0702049 155.414363,89.7917744 L155.414363,89.7917744 C158.556151,87.7731933 177.616393,89.4437443 174.753871,84.9889523 Z" id="Path" fill="#EB9456"/>
                <path d="M127.906135,64.8728261 C125.183246,48.1673802 111.91787,39.4666298 96.2088724,36.5431763 C82.6642245,34.0373604 68.6308543,35.1510558 56.4825617,42.2508709 C42.1699221,50.7428011 34.5597844,65.1512566 39.6564835,82.6223625 C42.0302886,90.627066 47.2666185,97.3788482 53.3407622,102.6689 C55.9938395,104.89629 58.0883726,107.680531 59.5545445,110.743203 C64.3719715,110.603993 68.1980249,113.173657 72.3870909,115.540258 C73.7834462,116.375528 75.1099849,117.350019 76.3667015,118.533319 C81.2539452,123.19692 83.1563451,128.676334 83.1563451,135.497727 C83.1563451,139.882909 82.3840148,143.304911 80.8480207,147.411662 C78.8931211,152.910534 75.7513215,158.130986 71.2131666,161.820107 C67.792095,164.465138 65.4890493,166.915263 61.2999833,168.028953 C61.998161,168.585803 62.6963386,169.212253 63.3945163,169.769103 C67.0948601,171.022014 70.2366597,173.667045 74.0766369,174.363105 C78.1260696,175.059165 82.5944023,174.780745 86.643835,174.363105 C93.7652505,173.736655 100.328116,170.256354 106.40226,166.567232 C108.636426,145.685425 106.821171,127.170229 110.032782,124.942828 C110.242237,124.803618 110.451693,124.803618 110.661137,124.803618 C109.544049,121.184107 108.357149,117.634195 107.170249,114.084294 C106.442018,112.051438 104.240238,106.881734 104.780405,103.054921 C105.275988,99.5439465 108.457056,97.2912459 109.125181,96.8915869 C109.962992,96.3347366 110.870625,95.7778863 111.638625,95.2210466 C118.550579,90.070205 124.904,83.3184121 127.2778,75.2441197 C128.255223,71.9726491 128.53449,68.3531274 127.906135,64.8728261 Z" id="Path" fill="#2B2B2B"/>
                <path d="M113.453869,135.03569 C113.174603,134.06121 112.965147,133.15633 112.68587,132.181839 C112.965147,133.15633 113.244414,134.06121 113.453869,135.03569 Z" id="Path" fill="#2B2B2B"/>
                <path d="M112.546236,131.624999 C112.26697,130.580909 111.987692,129.536819 111.708425,128.492728 C111.987692,129.536819 112.26697,130.580909 112.546236,131.624999 Z" id="Path" fill="#2B2B2B"/>
                <path d="M113.663325,135.731751 C113.942592,136.845451 114.221869,138.028752 114.501136,139.142442 C114.221869,138.028752 113.942592,136.845451 113.663325,135.731751 Z" id="Path" fill="#2B2B2B"/>
                <path d="M119.248746,67.1698165 C120.226191,67.1002062 120.924369,66.0561158 120.784735,64.8728155 C120.645102,63.6895046 119.807291,62.7846347 118.899658,62.8542344 C117.992024,62.9238446 117.224035,63.967935 117.363669,65.1512353 C117.503302,66.3345462 118.271291,67.2394161 119.248746,67.1698165 Z" id="Path" fill="#FFFFFF"/>
                <path d="M101.933938,79.6989009 C104.237926,82.6223518 106.192826,84.2232925 107.798626,84.5017123 C109.474248,84.7801428 111.149881,84.7801428 112.755692,84.3625024 C114.710591,83.7360525 116.525847,82.7615617 118.131658,81.4390516 C120.226191,79.7685112 121.901813,77.6803305 123.088723,75.3833296 C124.415257,72.4598787 124.973801,69.2579973 124.624712,66.0561265 C124.205801,62.1581849 122.809446,58.4690634 120.435646,55.3367923 C117.922202,51.9261014 114.082225,49.6291005 109.893159,48.9330402 C107.658993,48.4458002 105.355004,48.6546204 103.330293,49.4898906 C100.747038,50.4643813 98.8619603,52.5525621 97.8146938,56.3808934 C96.7674273,60.3484347 96.6277939,64.5247961 97.3957829,68.6315474 C98.0241386,72.5990885 99.560138,76.4274198 101.933938,79.6989009 Z M116.316402,62.4366046 C116.944758,60.9748739 117.78258,60.0699934 118.899657,59.8611839 C119.946924,59.6523636 120.924368,60.1396037 121.76219,61.322904 C122.739635,62.6454249 123.298179,64.2463549 123.437812,65.9169059 C123.647268,67.6570565 123.36799,69.3275968 122.739635,70.9285375 C122.18109,72.320658 121.343279,73.1559281 120.296013,73.4343479 C119.248746,73.5735578 118.271302,73.0863178 117.363669,71.9726278 C116.456036,70.650107 115.897491,69.049177 115.82768,67.4482362 C115.47858,65.777696 115.757858,64.0375453 116.316402,62.4366046 L116.316402,62.4366046 Z" id="Shape" fill="#FFFFFF"/>
                <path d="M117.293847,72.0422382 C118.20148,73.1559282 119.178924,73.6431789 120.226191,73.5039583 C121.273457,73.2255384 122.111268,72.3902683 122.669813,70.9981478 C123.298168,69.3972071 123.577446,67.6570565 123.36799,65.9865162 C123.298168,64.3159652 122.739635,62.7150352 121.692368,61.3925143 C120.854557,60.2092141 119.946924,59.721974 118.829835,59.9307942 C117.712747,60.1396144 116.874936,60.9748846 116.24658,62.506215 C115.618225,64.1071557 115.408769,65.8473063 115.618225,67.5874569 C115.827669,69.1187872 116.386214,70.7197173 117.293847,72.0422382 Z M118.969469,62.854245 C119.946913,62.7846347 120.784735,63.6895152 120.854546,64.8728155 C120.924358,66.0561264 120.226191,67.1002061 119.318558,67.1698165 C118.410925,67.2394268 117.503291,66.3345463 117.43348,65.151246 C117.363669,63.967935 117.922202,62.9238446 118.969469,62.854245 L118.969469,62.854245 Z" id="Shape" fill="#000000"/>
                <path d="M68.1834297,121.123301 C67.7645242,120.984091 66.1174263,121.044886 65.6985209,120.905665 C57.5298442,118.817485 44.5437405,123.341876 37.1430556,126.195727 C28.2761986,129.536819 19.8282498,133.78278 11.8690232,138.864022 C12.9861078,139.490472 14.173009,140.047322 15.2202755,140.673783 C18.1526223,142.344323 20.945333,144.223694 23.4587715,146.451085 C27.4383848,148.887296 31.2085453,151.532327 35.0485225,154.107748 C36.3052418,154.455778 37.6317805,154.734197 38.8884997,155.082228 C46.7080848,157.240019 53.689867,162.04283 60.0432774,167.124072 C60.9509105,166.636832 62.864294,166.556516 63.7021104,165.930066 C69.1478984,161.753704 72.5543271,154.561659 75.067771,147.670667 C77.9302931,139.735573 77.4691897,124.673202 68.1834297,121.123301 Z" id="Path" fill="#2B2B2B"/>
                <path d="M109.264803,164.687861 C112.336781,162.669291 115.338947,160.65071 118.410935,158.701739 C117.224035,152.158777 115.967313,145.615804 114.431325,139.142442 L114.431325,139.142442 C114.152058,138.028741 113.87278,136.845441 113.593514,135.731751 C113.523692,135.52293 113.45388,135.244511 113.45388,135.03569 C113.174613,134.06121 112.965158,133.15633 112.685881,132.181839 L112.546247,131.624989 C112.26698,130.580898 111.987703,129.536808 111.708436,128.492718 L111.638614,128.283897 C111.289525,127.170197 110.940436,125.986897 110.591348,124.873207 L110.591348,124.873207 C110.381892,124.803596 110.102625,124.873207 109.962992,125.012416 C106.75137,127.239807 108.566637,145.824614 106.33247,166.636821 C107.309904,166.010371 108.287359,165.383921 109.264803,164.687861 Z" id="Path" fill="#FFFFFF"/>
            </g>
            <path d="M77.1486304,117.146944 C75.9617306,116.033244 74.6351919,115.058763 73.1690199,114.153883 C69.0497705,111.787282 64.3021656,110.603971 59.4847385,110.743192 L59.2054664,110.743192 C54.248406,111.021612 51.2462399,111.717672 48.3138957,112.900983 L47.8251735,113.109803 C48.2440791,113.805864 47.9648069,114.710744 47.2666292,115.128374 C47.1968125,115.128374 47.1269958,115.197984 47.1269958,115.197984 C45.1720962,116.172464 43.7757462,117.843015 41.4019411,117.773405 C40.4244913,117.773405 39.6564969,116.938135 39.6564969,115.963644 C39.6564969,115.824434 39.6564969,115.685224 39.7263136,115.546003 C40.3546746,113.109793 42.4492076,111.300032 44.3342852,109.768701 C46.0797241,108.306971 48.1742571,107.4717 50.4084288,107.33249 C50.2687955,107.193281 50.1291567,107.054071 49.9895233,106.91485 L49.8498899,106.77564 L49.8498899,106.77564 C48.5931679,105.73155 47.2666347,104.826669 45.7306406,104.200219 L39.4470442,101.346368 L41.6113939,96.1259163 L34.4201644,92.7848249 L32.2558147,98.0748871 C30.0216456,97.0307967 27.7874765,95.7778861 25.413674,95.1514362 C22.4115106,94.316166 19.2697111,94.2465557 16.1977282,94.8730163 C14.3824659,95.2210465 12.6370218,95.8474964 11.0312137,96.6827772 C8.09886758,98.2837179 5.51560998,100.371899 3.35125926,102.947319 L3.14180582,103.225739 C3.14180582,103.573769 3.07198812,103.9218 3.00217042,104.200219 C3.28144156,104.96589 3.42107696,105.80116 3.42107696,106.63643 C3.42107696,112.900972 3.07198812,119.583155 3.6305304,125.847697 C4.04943693,125.569277 4.46834382,125.290847 4.95706805,125.082027 C7.26105451,123.898726 8.09886758,126.056507 6.28360535,127.309417 C5.86469846,127.587837 5.51560998,127.935867 5.09670344,128.283897 C5.51560998,128.701538 5.86469916,129.188778 6.14396995,129.745628 C6.77232958,130.998539 7.26105451,132.251449 7.74977874,133.57396 C8.16868563,134.40923 8.65740986,135.1749 9.21595144,135.94056 C10.0537645,135.45332 10.9613956,134.96608 11.7992094,134.478829 C11.5897566,133.782769 11.9388455,133.017099 12.6370232,132.738679 C14.1031966,132.112229 26.1816684,126.891777 27.9271126,126.126106 C30.7198233,124.873196 33.4427173,123.759506 36.3052447,122.715416 C42.379391,120.557625 48.8026235,119.235114 55.225856,118.747874 C60.252733,118.469454 65.9079765,118.678264 69.9574038,122.019355 C71.8424814,123.759506 73.4482922,125.847687 74.5653754,128.214287 C75.8220974,130.720108 76.450453,136.77583 76.5202751,137.40228 C76.7297305,140.047311 75.4730086,142.761942 74.8446476,145.337363 C74.2162867,147.564753 73.3784755,149.722545 72.4010258,151.810725 C70.236676,156.683147 67.7232375,161.346749 63.3945327,164.75745 C63.1152606,164.96627 62.8359884,165.10548 62.4868996,165.175091 L62.4868996,165.175091 L62.2774441,165.383911 C61.6490832,166.079971 61.0207221,166.706421 60.2527278,167.263271 L61.0207222,167.889721 C65.2097882,166.776021 69.1893988,164.82706 72.6104705,162.182029 C77.1486254,158.492908 80.290425,153.272456 82.2453246,147.773584 C83.7813133,143.666833 84.6191297,139.351251 84.6191297,134.96608 C84.8285849,128.283908 82.0358742,121.810546 77.1486304,117.146944 Z" id="Path" fill="#7DC960"/>
            <path d="M76.5202695,128.283908 C75.8220918,125.360457 74.2861031,122.715426 72.1915701,120.557635 C69.9574037,118.469454 67.164693,117.077334 64.1625268,116.450884 C61.7887217,115.963644 59.4149165,115.615614 57.0411167,115.546003 C54.8069503,115.406794 52.5029618,115.406794 50.4084288,114.710733 C49.8498845,114.571523 49.2913456,114.223493 48.8724401,113.805853 C48.7328067,113.527433 48.5233513,113.249003 48.4535345,112.970583 C47.6157235,113.249003 44.1946544,115.128374 43.0775686,116.102854 C43.0077519,116.172464 42.9379325,116.242064 42.7982965,116.311674 C42.5190244,116.520494 42.1001188,116.590094 41.75103,116.311674 C41.4019412,116.033254 41.5415772,115.406794 41.6812133,115.197973 L41.6812133,115.197973 L41.6812133,115.197973 C42.3793909,114.084273 43.1473853,113.109793 44.0550184,112.204912 C44.9626462,111.300032 45.940096,110.534372 46.9873625,109.838312 C47.9648123,109.211862 48.9422621,108.655011 49.9895286,108.167771 C50.2688008,108.028561 50.6178896,107.889351 50.9669784,107.750131 L50.9669784,107.750131 C50.6877063,107.471711 50.4084341,107.193281 50.1291674,106.914861 L49.989534,106.775651 L49.989534,106.775651 C49.2913563,106.2188 41.6114046,106.636441 37.8412441,113.318613 C35.0485334,118.121424 32.9540004,123.689906 22.551152,127.518238 C19.967894,125.360447 16.7562779,124.177146 13.4050242,124.107547 C10.7519489,124.246757 8.23850968,125.430057 6.49306549,127.379028 C6.14397666,127.727058 5.72506977,128.005478 5.30616359,128.353508 C5.72507047,128.771148 6.07415931,129.327988 6.28361205,129.815239 C6.91197168,131.068149 7.40069661,132.32106 7.88942084,133.64357 C8.30832772,134.47884 8.79705196,135.244511 9.35559423,136.010171 C18.3620859,130.928929 27.9271206,126.752567 37.8412455,123.689906 C41.6812227,122.436996 51.3160687,119.652755 58.4374842,119.652755 C61.2301949,119.652755 64.0927223,120.209605 66.6759829,121.253695 L66.8854384,121.323306 C76.1712036,124.873217 76.939198,139.768902 74.0766706,147.634385 C71.563232,154.525377 68.1421604,161.13795 62.6963777,165.314311 L62.4869223,165.523131 L62.8360111,165.453521 C63.3247333,165.314311 63.8134609,165.035881 64.3021832,164.827071 C65.4192664,164.200621 66.4665329,163.434951 67.374166,162.599681 C69.7479711,160.37229 71.7726875,157.727259 73.3086762,154.803808 C75.1937538,151.323507 76.5202925,147.564786 77.2184701,143.736454 C78.1260802,138.585602 77.9166248,133.29554 76.5202695,128.283908 Z" id="Path" fill="#6CB24F"/>
            <path d="M152.272552,131.764209 C149.828931,135.314121 146.687131,138.307171 142.916976,140.464962 L96.4183385,167.193682 C87.5514842,172.274924 76.6599082,172.274924 67.7930539,167.193682 L21.2944272,140.464973 C12.4275649,135.383721 6.9817796,125.986907 6.9817796,115.754824 L6.9817796,88.5388638 C4.67779314,89.3741446 2.37380667,90.2790251 2.86252862e-06,90.9054751 L2.86252862e-06,115.754824 C0.0698206299,128.423118 6.84214421,140.116932 17.8035335,146.520684 L64.3021602,173.249394 C75.3333696,179.583535 88.8780175,179.583535 99.9092269,173.249394 L146.407864,146.520684 C152.412196,143.040383 157.229618,137.959141 160.371418,131.764209 L152.272552,131.764209 Z" id="Path" fill="#FFFFFF"/>
        </g>
    </g>
</svg>