<?xml version="1.0" encoding="UTF-8"?>
<svg width="509px" height="504px" viewBox="0 0 509 504" version="1.1" xmlns="http://www.w3.org/2000/svg" xmlns:xlink="http://www.w3.org/1999/xlink">
    <title>JiJi-hex-2020_512</title>
    <g id="Favicons" stroke="none" stroke-width="1" fill="none" fill-rule="evenodd">
        <g id="JiJi-hex-2020_512" fill-rule="nonzero">
            <g id="Layer_1-2_1_">
                <path d="M449.000459,174.75465 C449.000459,145.358021 433.268096,117.974865 407.854367,103.276558 L273.524473,25.9594151 C247.909011,11.2611034 216.444331,11.2611034 190.828883,25.9594151 L56.4989776,103.075211 C30.8835148,117.974865 15.1511869,145.156681 15.1511869,174.75465 L15.1511869,329.590258 C15.1511869,358.986902 30.8835148,386.370036 56.4989785,401.068358 L190.828872,478.38547 C216.44432,493.083792 247.908985,493.083792 273.524478,478.38547 L407.854372,401.068358 C433.46982,386.370036 449.202153,358.986902 449.202153,329.590258 L449.000459,174.75465 Z" id="Path" fill="#1D9FE6"/>
                <path d="M232.176648,19.7086721 C246.391539,19.7086721 260.409005,23.4533191 272.649635,30.5484418 L404.137448,106.42683 C429.013531,121.01125 444.412979,147.61795 444.412979,176.392623 L444.412979,327.9523 C444.412979,356.726973 429.013501,383.530749 403.940007,397.918086 L272.649635,473.599375 C247.576141,487.986712 216.777185,487.986712 191.703691,473.599375 L60.2159081,397.918086 C35.1423919,383.33368 19.7429212,356.726973 19.7429212,327.755231 L19.7429212,176.392623 C19.7429212,147.61795 35.1423919,120.814159 60.2158931,106.42683 L191.703676,30.7455258 C203.944291,23.4533192 217.961757,19.7086721 232.176648,19.7086721 M232.176648,0 C214.408026,0 197.231683,4.73008151 181.83222,13.4018974 L50.3444365,89.2802852 C19.3480556,107.21518 0.197429131,140.325747 0,176.195524 L0,327.755231 C0.197429131,363.625008 19.3480552,396.735584 50.3444284,414.867556 L181.832212,490.548845 C213.02602,508.483718 251.327275,508.483718 282.521083,490.548845 L414.008897,414.867556 C445.005264,396.932652 464.155884,363.625008 464.353325,327.755231 L464.353325,176.392623 C464.155884,140.522846 445.202706,107.412263 414.206338,89.2802834 L282.521083,13.4018957 C267.121613,4.73008151 249.747844,0 232.176648,0 Z" id="Shape" fill="#FFFFFF"/>
                <path d="M507.590331,236.306974 C502.457132,224.087604 485.083392,214.233268 477.77849,210.685701 C459.417575,201.816798 439.477251,196.692561 418.944603,195.707128 C415.193462,195.510029 411.244879,195.312961 407.296296,195.312961 C396.832546,195.312961 386.368796,196.101295 376.102487,197.283828 C376.299929,191.962492 375.905046,186.641127 375.115342,181.319791 C371.3642,156.486883 358.728718,134.018978 339.183246,118.252048 C322.204329,104.258894 300.487124,94.6016414 274.229044,89.6744734 C261.39615,87.3094312 248.365831,85.9298227 235.335511,85.9298227 C204.53657,85.9298227 176.699065,93.222033 152.415276,107.609362 C103.452861,136.581112 83.3150876,185.261526 98.5171323,237.686598 C99.8991378,242.219599 101.478569,246.555501 103.255434,250.694304 C100.096571,249.511801 96.542841,249.314703 93.1865517,250.300136 C89.4353952,251.876836 87.2636777,256.015669 85.6842463,259.957404 C86.0791061,259.169069 73.6410722,255.621502 72.4564929,255.227334 C67.7181908,254.241901 62.9798962,253.650635 58.2415939,253.650635 C49.5547129,253.650635 40.670402,255.227334 32.5758068,258.380704 C24.0863538,261.534103 16.3866185,266.264173 9.47659889,271.979676 C8.8843111,272.570942 8.09459536,273.162208 7.50230718,273.753444 C7.89716544,274.541779 8.09459536,275.527213 8.2920243,276.512646 C9.27916995,282.622347 9.27916995,288.929116 8.48945323,295.038786 C9.27916995,297.206752 9.67402782,299.571787 9.67402782,301.936821 C9.67402782,320.66006 8.48945323,340.762899 10.6611735,359.486138 C10.6611735,359.683236 10.6611735,359.880305 10.6611735,360.274473 C13.6226104,361.851172 15.9917606,364.413306 17.3737641,367.369607 C19.1506255,370.917174 20.532631,374.464741 21.9146345,378.209376 C24.8760715,383.333643 28.4297963,388.063712 32.3783807,392.596713 C35.9321034,394.56758 39.4858302,396.341349 42.6446971,398.115147 C50.9367221,402.845217 58.8338874,408.166582 65.9413329,414.473351 C77.194795,421.371387 87.8559635,428.860688 98.7145658,436.152891 C102.268289,437.138324 106.019445,437.926659 109.573168,438.912093 C135.6338,446.007227 158.33815,463.350834 178.673356,480.694472 C189.137106,484.242039 198.021417,491.73134 208.88002,493.702207 C220.330915,495.673074 232.966367,494.88474 244.417263,493.702207 C267.911318,491.534241 289.431111,478.723604 308.779142,466.110066 C328.719496,453.102331 348.264968,439.503359 369.389879,428.46649 C389.725085,417.823819 411.244849,408.166552 426.644327,390.625846 C427.434031,389.837511 428.223766,389.049146 429.210912,388.260811 C419.536896,387.866644 409.270557,387.669545 402.163127,387.669545 C395.647959,387.669545 390.119938,387.472446 386.566238,387.275378 C376.49734,386.487043 367.415618,382.742377 357.741572,378.800643 C349.449555,375.253076 340.960096,372.296775 332.075785,370.128839 C327.929761,354.559 322.994033,338.397865 317.2686,322.23676 L319.637744,322.23676 C324.17862,322.23676 328.719496,322.039661 333.260342,321.645493 C342.342094,320.66006 351.226405,318.689193 359.913275,315.92999 C368.995027,312.776591 377.681896,308.834856 385.776503,303.907688 C394.463373,299.177619 402.75542,293.856254 411.244849,288.337849 C414.008844,286.366982 416.970281,284.593214 419.734307,282.622347 C429.803205,275.92141 441.254071,268.432109 445.794947,266.855409 C451.125527,265.278709 460.602131,264.490374 469.09159,263.899108 C487.452506,262.519507 500.680251,261.731142 506.800566,251.679737 C509.367181,246.949675 509.762064,241.234142 507.590331,236.306974 Z" id="Path" fill="#000000"/>
                <path d="M347.475264,441.474263 C354.780135,436.941263 362.085007,432.80246 369.58732,428.860725 C385.776503,420.38599 402.75542,412.502521 416.77287,400.874417 C404.137418,400.48025 392.29167,400.677318 385.579062,400.283151 C375.707605,399.297717 366.03359,396.735584 356.951838,392.793849 C349.844377,390.034647 343.131798,387.078346 335.826927,384.91038 C336.41922,387.078346 336.814072,389.246282 337.406366,391.217149 C341.157538,407.575353 344.316386,424.524793 347.475264,441.474263 Z" id="Path" fill="#2B2B2B"/>
                <path d="M296.538542,288.732054 C296.538542,288.929153 296.341101,289.126222 296.341101,289.520389 C296.341131,289.126222 296.341131,288.929153 296.538542,288.732054 Z" id="Path" fill="#000000"/>
                <path d="M296.933394,286.958286 L296.933394,286.958286 C296.933394,286.958286 297.130835,286.761187 297.130835,286.564119 L296.933394,286.958286 Z" id="Path" fill="#000000"/>
                <path d="M297.328276,286.169921 L297.92057,284.987389 C297.723129,285.381586 297.525688,285.775754 297.328276,286.169921 Z" id="Path" fill="#000000"/>
                <path d="M312.727725,353.573574 C313.71487,356.726973 314.702016,360.077441 315.689161,363.230811 C314.702016,360.077441 313.71487,356.726973 312.727725,353.573574 Z" id="Path" fill="#2B2B2B"/>
                <path d="M385.18424,284.199054 C411.047468,257.789445 447.374416,245.964212 484.096246,243.993344 C485.280833,242.810842 486.46539,241.62831 487.847388,240.642876 C488.044829,238.672009 488.637092,236.701142 489.229386,234.927373 C487.452536,233.350674 485.675655,231.773974 483.701364,230.394373 L483.701364,230.394373 C450.138412,204.181833 388.73794,208.320666 359.518452,213.050735 C351.423846,241.825378 303.25115,245.570044 302.461446,275.921387 C301.671711,320.26593 360.900451,293.462124 385.18424,284.199054 Z" id="Path" fill="#F8A344"/>
                <path d="M494.165114,240.642876 L494.165114,240.642876 C493.572821,239.657443 492.980527,238.672009 492.190823,237.883674 L492.190823,237.883674 C491.401118,236.898241 490.611384,236.109876 489.624238,235.124442 L489.624238,235.124442 C487.847388,233.350674 485.873097,231.773974 483.898805,230.394373 C487.255094,239.657442 486.267949,240.839975 469.683914,241.037044 C443.623275,241.431211 430.790381,245.570044 406.11174,262.913682 C383.604831,278.680619 351.621288,299.177626 320.427509,295.827158 C307.002322,294.447557 307.397174,281.833989 308.581761,274.344717 C304.633179,276.709752 301.276889,279.863152 298.512863,283.607787 C284.495383,315.732929 335.234694,310.017396 354.977607,302.922292 C377.484516,294.644656 396.635166,281.045654 417.760077,267.052515 L417.760077,267.052515 C422.695805,263.899115 427.828974,260.351578 434.344112,256.804011 L434.344112,256.804011 C435.923551,255.818578 437.700401,255.030243 439.477281,254.241878 L439.477281,254.241878 C448.361562,248.526345 502.25969,253.256445 494.165114,240.642876 Z" id="Path" fill="#EB9456"/>
                <path d="M361.690125,183.684856 C353.990401,136.384043 316.478866,111.74821 272.057311,103.470567 C233.756057,96.3754475 194.072805,99.5288321 159.720133,119.631679 C119.247169,143.676246 97.7273903,184.473221 112.139723,233.94197 C118.852316,256.606973 133.659494,275.724379 150.835822,290.702952 C158.338135,297.009721 164.261009,304.89319 168.407018,313.565024 C182.029631,313.170856 192.848859,320.446759 204.694607,327.147696 C208.64319,329.51273 212.394346,332.271963 215.948061,335.622431 C229.768101,348.827235 235.147665,364.34198 235.147665,383.656485 C235.147665,396.072955 232.963686,405.76222 228.620236,417.390324 C223.092215,432.960163 214.207904,447.741667 201.37501,458.187269 C191.70098,465.676571 185.188478,472.614002 173.342731,475.767371 C175.317022,477.344071 177.291313,479.117839 179.265604,480.694539 C189.729355,484.242106 198.613665,491.731408 209.472268,493.702275 C220.923163,495.673142 233.558616,494.884807 245.009511,493.702275 C265.147292,491.928507 283.705618,482.07417 300.881946,471.628568 C307.199672,412.502552 302.066533,360.077502 311.148255,353.770703 C311.740548,353.376535 312.332842,353.376535 312.925105,353.376535 C309.766227,343.128032 306.409938,333.076597 303.053649,323.025192 C300.994374,317.269241 294.768228,302.631426 296.295701,291.795957 C297.6971,281.85477 306.692453,275.476337 308.581761,274.344718 C310.950904,272.768018 313.517489,271.191319 315.689222,269.614649 C335.234693,255.030243 353.200756,235.912807 359.913335,213.050766 C362.677271,203.787726 363.466975,193.539192 361.690125,183.684856 Z" id="Path" fill="#2B2B2B"/>
                <path d="M320.822331,382.348247 C320.032626,379.589045 319.440333,377.026912 318.650598,374.267679 C319.440333,377.026912 320.230038,379.589045 320.822331,382.348247 Z" id="Path" fill="#2B2B2B"/>
                <path d="M318.255746,372.69101 C317.466042,369.734709 316.676307,366.778408 315.886603,363.822107 C316.676307,366.778408 317.466042,369.734709 318.255746,372.69101 Z" id="Path" fill="#2B2B2B"/>
                <path d="M321.414624,384.319114 C322.204329,387.472514 322.994064,390.822982 323.783768,393.976352 C322.994063,390.822982 322.204329,387.472514 321.414624,384.319114 Z" id="Path" fill="#2B2B2B"/>
                <path d="M337.208955,190.188694 C339.972951,189.991595 341.947242,187.035294 341.55239,183.684826 C341.157538,180.334328 338.788394,177.772224 336.221809,177.969293 C333.655224,178.166392 331.483522,181.122692 331.878375,184.473161 C332.273227,187.823659 334.444929,190.385762 337.208955,190.188694 Z" id="Path" fill="#FFFFFF"/>
                <path d="M288.246524,225.664304 C294.761692,233.94194 300.289713,238.474941 304.830559,239.263275 C309.568846,240.05164 314.307164,240.05164 318.84804,238.869108 C324.376061,237.09534 329.509201,234.336107 334.050077,230.591472 C339.972951,225.861403 344.711238,219.948801 348.067557,213.444933 C351.818698,205.167297 353.398137,196.101296 352.410992,187.035325 C351.226405,175.998456 347.277822,165.552854 340.565244,156.683951 C333.457783,147.026714 322.599181,140.522846 310.753433,138.551979 C304.435707,137.172378 297.920539,137.763644 292.195107,140.128679 C284.890235,142.887911 279.559654,148.800513 276.598217,159.640283 C273.63678,170.87422 273.241928,182.699423 275.413631,194.327527 C277.190481,205.561464 281.533946,216.401234 288.246524,225.664304 Z M328.916937,176.786791 C330.693787,172.647957 333.062961,170.085824 336.221809,169.494588 C339.183246,168.903322 341.947242,170.282923 344.316416,173.633391 C347.080411,177.378057 348.65985,181.911027 349.054703,186.641127 C349.646996,191.568295 348.857261,196.298364 347.080411,200.831365 C345.500972,204.773099 343.131829,207.138133 340.170392,207.926468 C337.208955,208.320636 334.444959,206.941035 331.878374,203.787665 C329.31179,200.042999 327.732351,195.510029 327.53494,190.977028 C326.547764,186.246959 327.337498,181.319791 328.916937,176.786791 L328.916937,176.786791 Z" id="Shape" fill="#FFFFFF"/>
                <path d="M331.680933,203.984764 C334.247518,207.138134 337.011514,208.517765 339.972951,208.123567 C342.934388,207.335232 345.303531,204.970198 346.88297,201.028463 C348.65982,196.495463 349.449555,191.568295 348.857261,186.838226 C348.65982,182.108126 347.080411,177.575156 344.118974,173.83049 C341.749831,170.480022 339.183246,169.100421 336.024368,169.691687 C332.86549,170.282953 330.496346,172.647988 328.719496,176.98389 C326.942646,181.51689 326.350353,186.444058 326.942646,191.371226 C327.534909,195.707128 329.114349,200.240098 331.680933,203.984764 Z M336.41922,177.969323 C339.183216,177.772224 341.55239,180.334358 341.749801,183.684826 C341.947212,187.035324 339.972951,189.991595 337.406366,190.188694 C334.839781,190.385793 332.273196,187.823659 332.075785,184.473191 C331.878374,181.122692 333.457783,178.166392 336.41922,177.969323 L336.41922,177.969323 Z" id="Shape" fill="#000000"/>
                <path d="M192.807587,342.955863 C191.623016,342.561696 186.965389,342.733834 185.780817,342.339637 C162.681615,336.427035 125.9598,349.237672 105.032307,357.318239 C79.958806,366.778408 56.0698843,378.80068 33.5629602,393.188017 C36.7218271,394.961785 40.0781199,396.538485 43.0395569,398.312283 C51.331582,403.042353 59.2287472,408.363718 66.3361928,414.670487 C77.5896548,421.568523 88.2508309,429.057824 99.1094331,436.350027 C102.663156,437.33546 106.414313,438.123795 109.968035,439.109229 C132.080084,445.218929 151.823013,458.817901 169.789045,473.205238 C172.35563,471.825637 177.766254,471.598224 180.135412,469.824456 C195.534891,457.999252 205.167514,437.635259 212.274975,418.123685 C220.369551,395.655781 219.065653,353.007268 192.807587,342.955863 Z" id="Path" fill="#2B2B2B"/>
                <path d="M308.976583,466.307202 C317.663453,460.591699 326.152911,454.876166 334.839811,449.357732 C331.483522,430.831593 327.929792,412.305423 323.586357,393.976352 L323.586357,393.976352 C322.796652,390.822952 322.006918,387.472484 321.217213,384.319114 C321.019772,383.727848 320.822361,382.939513 320.822361,382.348247 C320.032657,379.589045 319.440364,377.026912 318.650629,374.267679 L318.255777,372.69098 C317.466072,369.734679 316.676338,366.778378 315.886633,363.822077 L315.689192,363.230811 C314.702046,360.077411 313.714901,356.726943 312.727755,353.573574 L312.727755,353.573574 C312.135462,353.376475 311.345757,353.573574 310.950905,353.967741 C301.869153,360.27451 307.002322,412.896659 300.684596,471.825606 C303.448561,470.051838 306.212587,468.27807 308.976583,466.307202 Z" id="Path" fill="#FFFFFF"/>
            </g>
            <path d="M218.159183,331.696966 C214.802894,328.543566 211.051737,325.784364 206.905728,323.22223 C195.257407,316.521294 181.832235,313.170796 168.209622,313.564993 L167.419902,313.564993 C153.402437,314.353328 144.912978,316.324195 136.620961,319.674694 L135.238963,320.26596 C136.423535,322.236827 135.633815,324.798961 133.659524,325.981463 C133.462098,325.981463 133.264672,326.178561 133.264672,326.178561 C127.73665,328.937764 123.788082,333.667863 117.075489,333.470764 C114.311478,333.470764 112.139761,331.105729 112.139761,328.346497 C112.139761,327.95233 112.139761,327.558162 112.337187,327.163965 C114.114052,320.26593 120.036926,315.141663 125.367507,310.805761 C130.30322,306.666928 136.226094,304.301893 142.543835,303.907726 C142.148983,303.513558 141.754115,303.119391 141.359263,302.725193 L140.964411,302.331026 L140.964411,302.331026 C137.41068,299.374725 133.659539,296.812592 129.316089,295.038823 L111.547475,286.958256 L117.667775,272.176752 L97.332576,262.716583 L91.2122759,277.695186 C84.8945422,274.738885 78.5768086,271.191318 71.8642227,269.41755 C63.3747716,267.052515 54.4904607,266.855416 45.8035758,268.629215 C40.6704176,269.614648 35.7346893,271.388417 31.1938209,273.753482 C22.9017978,278.286482 15.5969193,284.199084 9.47661646,291.491286 L8.88432867,292.279621 C8.88432867,293.265055 8.68689973,294.250489 8.4894708,295.038823 C9.27918752,297.206789 9.67404539,299.571824 9.67404539,301.936859 C9.67404539,319.674664 8.68689973,338.595001 10.2663332,356.332806 C11.4509078,355.544471 12.6354833,354.756106 14.0174869,354.16484 C20.5326486,350.814372 22.9017978,356.924042 17.7686396,360.471609 C16.584064,361.259944 15.5969193,362.245377 14.4123447,363.230811 C15.5969193,364.413343 16.584066,365.792944 17.3737817,367.369644 C19.1506431,370.917211 20.5326486,374.464778 21.9146521,378.209414 C23.0992277,380.574448 24.4812312,382.742414 26.0606627,384.91035 C28.4298119,383.530749 30.996391,382.151148 33.3655421,380.771517 C32.7732563,378.80065 33.760402,376.632684 35.7346933,375.844349 C39.8807058,374.070581 74.0359402,359.289076 78.9716684,357.12111 C86.8688337,353.573543 94.5685728,350.420174 102.663164,347.463873 C119.8395,341.354173 138.002974,337.609537 156.166448,336.229936 C170.38134,335.441601 186.373111,336.032837 197.823992,345.493006 C203.154572,350.420174 207.695448,356.332776 210.854312,363.033712 C214.408042,370.128846 216.184892,387.275385 216.382333,389.049153 C216.974627,396.538455 213.420896,404.224825 211.644031,411.517027 C209.867166,417.823796 207.498023,423.933497 204.734012,429.846099 C198.613712,443.642169 191.506266,456.846973 179.265651,466.504241 C178.475931,467.095507 177.686212,467.489674 176.699066,467.686773 L176.699066,467.686773 L176.106773,468.278039 C174.329907,470.248907 172.553042,472.022675 170.381325,473.599375 L172.553042,475.373143 C184.39879,472.219744 195.652244,466.70134 205.326275,459.212038 C218.159169,448.766436 227.043479,433.984932 232.571501,418.415093 C236.914936,406.786988 239.284095,394.567588 239.284095,382.151148 C239.876387,363.230841 231.979222,344.90177 218.159183,331.696966 Z" id="Path" fill="#7DC960"/>
            <path d="M216.382318,363.230841 C214.408026,354.953205 210.064592,347.463903 204.141718,341.354203 C197.823992,335.441601 189.926826,331.499867 181.437368,329.726098 C174.724774,328.346497 168.012181,327.361064 161.299602,327.163965 C154.981876,326.769798 148.466709,326.769798 142.543835,324.79893 C140.964396,324.404763 139.384972,323.419329 138.2004,322.236797 C137.805548,321.448462 137.213254,320.660097 137.015828,319.871762 C134.646685,320.660097 124.972662,325.981463 121.813791,328.740665 C121.616365,328.937764 121.418931,329.134832 121.024072,329.331931 C120.234352,329.923197 119.04978,330.120266 118.062635,329.331931 C117.075489,328.543596 117.470349,326.769798 117.865209,326.178531 L117.865209,326.178531 L117.865209,326.178531 C119.8395,323.025132 122.011217,320.26593 124.577802,317.703796 C127.144372,315.141663 129.908382,312.973727 132.869819,311.00286 C135.63383,309.229091 138.397841,307.652392 141.359278,306.272791 C142.148998,305.878623 143.136143,305.484456 144.123289,305.090258 L144.123289,305.090258 C143.33357,304.301923 142.54385,303.513558 141.754146,302.725224 L141.359293,302.331056 L141.359293,302.331056 C139.385002,300.754356 117.667805,301.936889 107.006629,320.857196 C99.1094639,334.456168 93.18659,350.223106 63.7696465,361.062875 C56.464767,354.953175 47.3830302,351.602707 37.9064295,351.405638 C30.4041221,351.799805 23.2966746,355.150274 18.3609463,360.668708 C17.3738007,361.654141 16.1892251,362.442476 15.0046515,363.42791 C16.1892271,364.610442 17.1763727,366.187112 17.7686585,367.566743 C19.5455199,371.11431 20.9275254,374.661877 22.3095289,378.406513 C23.4941045,380.771547 24.876108,382.939513 26.4555415,385.107449 C51.9238986,370.720112 78.9716911,358.894909 107.006633,350.223106 C117.865235,346.675538 145.110439,338.79207 165.248219,338.79207 C173.145385,338.79207 181.239976,340.36877 188.544863,343.32507 L189.137156,343.522169 C215.395237,353.573604 217.566954,395.75015 209.472363,418.020956 C202.364917,437.532529 192.690887,456.255768 177.291424,468.080971 L176.69913,468.672237 L177.686276,468.475139 C179.068274,468.080971 180.450287,467.292606 181.832285,466.70137 C184.991148,464.927602 187.952585,462.759636 190.519169,460.394601 C197.231763,454.087832 202.957211,446.598531 207.300646,438.320894 C212.631226,428.466558 216.382383,417.823887 218.356674,406.984118 C220.923194,392.399682 220.3309,377.421079 216.382318,363.230841 Z" id="Path" fill="#6CB24F"/>
            <path d="M430.59294,373.085177 C423.68292,383.136612 414.798609,391.611317 404.137448,397.721017 L272.649635,473.402336 C247.576141,487.789673 216.777185,487.789673 191.703691,473.402336 L60.2159081,397.721047 C35.1423919,383.333681 19.7429212,356.726973 19.7429212,327.755231 L19.7429212,250.694311 C13.2277595,253.059376 6.71259776,255.621509 8.09459463e-06,257.395278 L8.09459463e-06,327.755231 C0.197437226,363.625008 19.3480633,396.735584 50.3444365,414.867556 L181.83222,490.548845 C213.026029,508.483718 251.327283,508.483718 282.521092,490.548845 L414.008905,414.867556 C430.987822,405.01322 444.61042,390.625883 453.494731,373.085177 L430.59294,373.085177 Z" id="Path" fill="#FFFFFF"/>
        </g>
    </g>
</svg>