<?xml version="1.0" encoding="UTF-8"?>
<svg width="32px" height="32px" viewBox="0 0 32 32" version="1.1" xmlns="http://www.w3.org/2000/svg" xmlns:xlink="http://www.w3.org/1999/xlink">
    <title>JiJi-hex-2020_32</title>
    <g id="Favicons" stroke="none" stroke-width="1" fill="none" fill-rule="evenodd">
        <g id="JiJi-hex-2020_32" fill-rule="nonzero">
            <g id="Layer_1-2_1_">
                <path d="M28.2279267,11.0955333 C28.2279267,9.22908067 27.2388587,7.49046759 25.641139,6.55724175 L17.1960376,1.64821683 C15.5856353,0.714990695 13.6075021,0.714990695 11.9971007,1.64821683 L3.55199859,6.54445784 C1.94159622,7.49046759 0.952530416,9.21629724 0.952530416,11.0955333 L0.952530416,20.9263656 C0.952530416,22.7928192 1.94159622,24.5314308 3.55199865,25.4646576 L11.9971,30.3736806 C13.6075015,31.3069074 15.5856337,31.3069074 17.1960379,30.3736806 L25.6411393,25.4646576 C27.2515407,24.5314308 28.2406068,22.7928192 28.2406068,20.9263656 L28.2279267,11.0955333 Z" id="Path" fill="#1D9FE6"/>
                <path d="M14.5965673,1.25134426 C15.4902343,1.25134426 16.3714895,1.48909962 17.141038,1.93958361 L25.4074624,6.75725902 C26.9713811,7.68325396 27.9395193,9.37256824 27.9395193,11.1995316 L27.9395193,20.8223682 C27.9395193,22.6493316 26.9713792,24.3511587 25.3950496,25.2646404 L17.141038,30.0698016 C15.5647083,30.9832833 13.6284281,30.9832833 12.0520985,30.0698016 L3.78567595,25.2646404 C2.20934487,24.3386464 1.24120526,22.6493316 1.24120526,20.8098559 L1.24120526,11.1995316 C1.24120526,9.37256825 2.20934487,7.67074024 3.78567501,6.75725903 L12.0520975,1.95209687 C12.821645,1.48909963 13.7029002,1.25134426 14.5965673,1.25134426 M14.5965673,0 C13.479483,0 12.3996343,0.300322635 11.4314951,0.850914123 L3.16507263,5.66858953 C1.21638071,6.80731299 0.0124120475,8.90957125 0,11.1870174 L0,20.8098559 C0.0124120475,23.0873021 1.21638068,25.1895609 3.16507212,26.3407972 L11.4314946,31.1459584 C13.3925985,32.2846805 15.8005359,32.2846805 17.7616398,31.1459584 L26.0280642,26.3407972 C27.9767553,25.2020732 29.1807236,23.0873021 29.1931364,20.8098559 L29.1931364,11.1995316 C29.1807236,8.92208547 27.9891681,6.81982624 26.040477,5.66858942 L17.7616398,0.850914011 C16.7935003,0.300322635 15.7012397,0 14.5965673,0 Z" id="Shape" fill="#FFFFFF"/>
                <path d="M31.9113764,15.0036174 C31.5886605,14.2277844 30.4964019,13.6021122 30.0371546,13.3768699 C28.8828338,12.813765 27.6292181,12.4884166 26.338364,12.4258494 C26.1025359,12.4133352 25.8542949,12.4008229 25.606054,12.4008229 C24.9482151,12.4008229 24.2903762,12.4508759 23.6449501,12.5259573 C23.6573629,12.1880948 23.6325373,11.8502303 23.5828899,11.5123677 C23.3470617,9.93567508 22.5526895,8.50914147 21.3238976,7.50806654 C20.2564607,6.6196123 18.8911355,6.00645342 17.2403328,5.69361736 C16.4335497,5.54345595 15.6143548,5.45586176 14.7951598,5.45586176 C12.8588806,5.45586176 11.1087821,5.91885924 9.58209987,6.83234045 C6.50391265,8.67181661 5.2378837,11.7626366 6.19361146,15.0912126 C6.28049589,15.3790221 6.37979217,15.6543175 6.49150079,15.9170986 C6.29290821,15.8420191 6.06949098,15.8295049 5.85848655,15.8920721 C5.62265746,15.9921801 5.48612512,16.2549631 5.38682884,16.505232 C5.41165304,16.455179 4.62969413,16.2299366 4.55522156,16.2049101 C4.25733223,16.1423429 3.95944337,16.1048022 3.66155404,16.1048022 C3.11542399,16.1048022 2.55688185,16.2049101 2.04798786,16.4051241 C1.51426979,16.6053399 1.03019998,16.9056618 0.595778319,17.2685508 C0.558542151,17.3060915 0.508894011,17.3436323 0.471657819,17.3811711 C0.496481914,17.4312241 0.508894011,17.4937913 0.521306046,17.5563585 C0.583366284,17.944276 0.583366284,18.3447058 0.533718081,18.7326213 C0.583366284,18.87027 0.608190354,19.0204309 0.608190354,19.1705918 C0.608190354,20.3593689 0.533718081,21.6357396 0.670250592,22.8245167 C0.670250592,22.8370309 0.670250592,22.8495432 0.670250592,22.8745697 C0.856431305,22.9746776 1.00537591,23.1373527 1.09226022,23.3250544 C1.2039686,23.5502967 1.29085303,23.7755391 1.37773734,24.0132937 C1.56391805,24.338644 1.78733493,24.6389659 2.03557599,24.9267754 C2.25899275,25.0519099 2.48240976,25.1645301 2.68100257,25.2771522 C3.20230866,25.5774741 3.69879056,25.9153385 4.14562408,26.3157683 C4.85311088,26.7537388 5.52336117,27.22925 6.20602378,27.692247 C6.42944054,27.7548142 6.66526964,27.8048672 6.88868639,27.8674345 C8.52707581,28.3179192 9.95446128,29.4191006 11.2329026,30.5202839 C11.8907415,30.7455263 12.4492836,31.2210375 13.1319462,31.3461719 C13.8518454,31.4713063 14.6462156,31.4212533 15.3661148,31.3461719 C16.8431477,31.2085233 18.196062,30.3951495 19.4124411,29.5942899 C20.6660587,28.7684019 21.8948506,27.9049752 23.2229393,27.2042216 C24.5013806,26.5284965 25.854293,25.9153366 26.8224331,24.801641 C26.8720806,24.751588 26.9217299,24.7015331 26.9837901,24.6514801 C26.3756006,24.6264536 25.7301726,24.6139394 25.28334,24.6139394 C24.873742,24.6139394 24.5262043,24.6014252 24.302789,24.5889129 C23.6697738,24.5388599 23.0988208,24.3011033 22.4906293,24.0508345 C21.9693237,23.8255921 21.4356053,23.6378905 20.8770631,23.5002437 C20.6164094,22.5116825 20.3061082,21.4855787 19.9461596,20.4594768 L20.0951037,20.4594768 C20.3805812,20.4594768 20.6660587,20.4469626 20.9515343,20.4219361 C21.5224892,20.3593689 22.0810313,20.2342344 22.6271607,20.059047 C23.1981156,19.8588312 23.744245,19.6085623 24.2531397,19.2957262 C24.799269,18.9954044 25.3205765,18.6575399 25.854293,18.307165 C26.028061,18.1820306 26.2142417,18.0694104 26.3880115,17.944276 C27.0210267,17.5188197 27.7409239,17.0433085 28.0264014,16.9432006 C28.3615263,16.8430926 28.9573049,16.7930396 29.4910234,16.7554989 C30.6453442,16.6679052 31.476951,16.6178503 31.8617252,15.9796659 C32.0230841,15.6793445 32.0479097,15.3164535 31.9113764,15.0036174 Z" id="Path" fill="#000000"/>
                <path d="M21.8452032,28.030112 C22.3044486,27.7423024 22.763694,27.4795213 23.2353522,27.2292524 C24.2531397,26.691174 25.3205765,26.1906363 26.2018308,25.4523439 C25.4074605,25.4273174 24.6627376,25.4398297 24.2407269,25.4148032 C23.6201245,25.352236 23.0119349,25.1895609 22.44098,24.939292 C21.9941455,24.7641046 21.5721366,24.5764029 21.1128913,24.4387543 C21.1501278,24.5764029 21.1749515,24.7140497 21.212188,24.8391841 C21.4480181,25.8778002 21.6466097,26.9539551 21.8452032,28.030112 Z" id="Path" fill="#2B2B2B"/>
                <path d="M18.6428946,18.3321939 C18.6428946,18.3447081 18.6304818,18.3572204 18.6304818,18.3822469 C18.6304837,18.3572204 18.6304837,18.3447081 18.6428946,18.3321939 Z" id="Path" fill="#000000"/>
                <path d="M18.6677183,18.2195737 L18.6677183,18.2195737 C18.6677183,18.2195737 18.6801311,18.2070595 18.6801311,18.1945472 L18.6677183,18.2195737 Z" id="Path" fill="#000000"/>
                <path d="M18.6925439,18.1695188 L18.7297804,18.0944374 C18.7173676,18.1194658 18.7049548,18.1444923 18.6925439,18.1695188 Z" id="Path" fill="#000000"/>
                <path d="M19.6606821,22.4491158 C19.7227423,22.6493316 19.7848026,22.8620598 19.8468628,23.0622737 C19.7848026,22.8620598 19.7227423,22.6493316 19.6606821,22.4491158 Z" id="Path" fill="#2B2B2B"/>
                <path d="M24.2159051,18.0443844 C25.841884,16.3675838 28.1257,15.6167753 30.4343416,15.4916409 C30.5088147,15.4165614 30.5832858,15.34148 30.6701698,15.2789128 C30.6825826,15.1537784 30.7198172,15.0286439 30.7570537,14.9160237 C30.645346,14.8159158 30.5336365,14.7158079 30.409516,14.6282141 L30.409516,14.6282141 C28.2994679,12.9639259 24.4393204,13.226709 22.6023389,13.5270308 C22.0934442,15.3539923 19.0649053,15.5917488 19.0152579,17.5188182 C18.9656086,20.3343448 22.6892228,18.6325158 24.2159051,18.0443844 Z" id="Path" fill="#F8A344"/>
                <path d="M31.0673549,15.2789128 L31.0673549,15.2789128 C31.0301184,15.2163456 30.9928819,15.1537784 30.9432344,15.1037253 L30.9432344,15.1037253 C30.893587,15.0411581 30.8439377,14.9911032 30.7818774,14.928536 L30.7818774,14.928536 C30.6701698,14.8159158 30.5460493,14.7158079 30.4219288,14.6282141 C30.6329332,15.2163456 30.570873,15.291427 29.5282618,15.3039393 C27.8898719,15.3289658 27.0830888,15.5917488 25.5315829,16.6929322 C24.1166102,17.6940076 22.105857,18.9954049 20.144755,18.7826767 C19.3007354,18.695083 19.3255591,17.8942215 19.4000321,17.4187122 C19.1517912,17.5688731 18.9407868,17.769089 18.767017,18.0068436 C17.8857608,20.0465352 21.0756586,19.6836442 22.3168633,19.2331614 C23.731836,18.7075972 24.9358061,17.8441685 26.2638948,16.9557152 L26.2638948,16.9557152 C26.574196,16.7554994 26.89691,16.5302589 27.306506,16.3050166 L27.306506,16.3050166 C27.4058028,16.2424494 27.5175105,16.1923964 27.62922,16.1423415 L27.62922,16.1423415 C28.1877603,15.7794505 31.5762477,16.0797743 31.0673549,15.2789128 Z" id="Path" fill="#EB9456"/>
                <path d="M22.7388684,11.6625305 C22.2547993,8.65930431 19.8965102,7.09512446 17.1037995,6.56955978 C14.6958621,6.11907603 12.2010408,6.31929093 10.0413443,7.59566218 C7.49687504,9.12230131 6.14396167,11.7125855 7.05004151,14.8534584 C7.47205131,16.2925062 8.40295441,17.5063098 9.48280217,18.4573303 C9.95446036,18.8577601 10.3268218,19.3582978 10.5874746,19.9088904 C11.4439061,19.8838639 12.1240933,20.345826 12.8688162,20.7712823 C13.1170571,20.9214432 13.3528862,21.0966325 13.5763025,21.3093607 C14.4451458,22.147761 14.7833502,23.1328241 14.7833502,24.3591419 C14.7833502,25.1474892 14.6460471,25.7626806 14.3729815,26.500973 C14.0254437,27.4895342 13.4669016,28.4280424 12.6601185,29.0912552 C12.051928,29.5667664 11.6424977,30.0072382 10.8977748,30.2074521 C11.0218953,30.3075601 11.1460158,30.4201803 11.2701362,30.5202882 C11.9279751,30.7455306 12.4865173,31.2210418 13.1691799,31.3461762 C13.889079,31.4713106 14.6834493,31.4212576 15.4033484,31.3461762 C16.6693779,31.233556 17.8361096,30.6078838 18.9159573,29.944671 C19.3131425,26.1906382 18.9904304,22.8620636 19.5613834,22.4616319 C19.5986199,22.4366054 19.6358565,22.4366054 19.6730911,22.4366054 C19.4744976,21.7859068 19.2634931,21.1477205 19.0524887,20.509536 C18.9230255,20.1440788 18.5315979,19.2146937 18.6276276,18.5267274 C18.7157312,17.8955409 19.2812544,17.4905611 19.4000321,17.4187123 C19.5489763,17.3186043 19.7103333,17.2184964 19.8468666,17.1183904 C21.0756585,16.1923964 22.2051556,14.9785909 22.6271645,13.5270328 C22.8009286,12.9389032 22.850576,12.2882027 22.7388684,11.6625305 Z" id="Path" fill="#2B2B2B"/>
                <path d="M20.1695768,24.2760792 C20.1199294,24.1008917 20.0826928,23.9382166 20.0330435,23.7630273 C20.0826928,23.9382166 20.1323403,24.1008917 20.1695768,24.2760792 Z" id="Path" fill="#2B2B2B"/>
                <path d="M20.0082198,23.6629213 C19.9585724,23.4752196 19.908923,23.287518 19.8592756,23.0998163 C19.908923,23.287518 19.9585724,23.4752196 20.0082198,23.6629213 Z" id="Path" fill="#2B2B2B"/>
                <path d="M20.2068133,24.4012136 C20.2564608,24.6014295 20.3061101,24.8141576 20.3557575,25.0143715 C20.3061101,24.8141576 20.2564608,24.6014295 20.2068133,24.4012136 Z" id="Path" fill="#2B2B2B"/>
                <path d="M21.1997771,12.0754726 C21.373545,12.0629584 21.4976655,11.8752568 21.4728418,11.6625286 C21.4480181,11.4497986 21.2990739,11.2871253 21.1377169,11.2996376 C20.9763599,11.3121518 20.8398285,11.4998535 20.8646522,11.7125816 C20.8894759,11.9253117 21.0260073,12.0879849 21.1997771,12.0754726 Z" id="Path" fill="#FFFFFF"/>
                <path d="M18.121589,14.3278923 C18.5311869,14.8534565 18.8787246,15.1412661 19.1642002,15.1913191 C19.4620886,15.241374 19.7599789,15.241374 20.0454563,15.1662926 C20.392994,15.0536724 20.7157061,14.878483 21.0011836,14.6407284 C21.373545,14.3404065 21.6714334,13.9650032 21.8824397,13.5520593 C22.1182679,13.026495 22.2175646,12.4508759 22.1555044,11.8752587 C22.0810313,11.1745052 21.8327904,10.5112923 21.4107815,9.94818739 C20.9639471,9.33502946 20.2812845,8.92208548 19.5365616,8.79695105 C19.1393765,8.70935734 18.7297785,8.74689805 18.3698299,8.89705898 C17.9105845,9.07224833 17.5754596,9.44765161 17.3892789,10.135891 C17.2030982,10.8491568 17.1782745,11.5999634 17.3148059,12.3382557 C17.4265135,13.0515215 17.6995801,13.7397609 18.121589,14.3278923 Z M20.6784715,11.2245581 C20.7901792,10.9617751 20.9391253,10.7990999 21.1377169,10.7615611 C21.3238976,10.7240204 21.4976655,10.8116142 21.6466116,11.0243423 C21.8203795,11.2620988 21.9196762,11.5499065 21.9445,11.8502303 C21.9817365,12.1630663 21.9320872,12.4633882 21.8203795,12.7511977 C21.7210827,13.0014666 21.5721385,13.1516275 21.3859578,13.2016805 C21.1997771,13.226707 21.0260092,13.1391133 20.8646522,12.9388994 C20.7032952,12.7011428 20.6039985,12.4133352 20.5915876,12.1255256 C20.5295254,11.8252038 20.5791748,11.5123677 20.6784715,11.2245581 L20.6784715,11.2245581 Z" id="Shape" fill="#FFFFFF"/>
                <path d="M20.8522394,12.9514136 C21.0135964,13.1516275 21.1873643,13.2392232 21.373545,13.2141947 C21.5597257,13.1641417 21.7086699,13.0139808 21.8079667,12.763712 C21.9196744,12.4759024 21.9693237,12.1630663 21.9320872,11.8627445 C21.9196744,11.5624207 21.8203795,11.2746131 21.6341988,11.0368565 C21.4852546,10.8241284 21.3238976,10.7365346 21.1253041,10.7740754 C20.9267106,10.8116161 20.7777664,10.961777 20.6660587,11.2370724 C20.554351,11.5248819 20.5171145,11.837718 20.554351,12.1505541 C20.5915857,12.4258494 20.6908824,12.713657 20.8522394,12.9514136 Z M21.1501278,11.2996396 C21.3238957,11.2871253 21.4728418,11.4498005 21.4852527,11.6625286 C21.4976636,11.8752587 21.373545,12.0629584 21.212188,12.0754726 C21.050831,12.0879868 20.889474,11.9253117 20.8770631,11.7125835 C20.8646522,11.4998535 20.9639471,11.3121518 21.1501278,11.2996396 L21.1501278,11.2996396 Z" id="Shape" fill="#000000"/>
                <path d="M12.1214986,21.7749754 C12.0470265,21.7499489 11.7542091,21.7608784 11.679737,21.7358499 C10.2275279,21.3604467 7.91888721,22.1738204 6.60320988,22.6868723 C5.02687975,23.287518 3.5250222,24.0508368 2.11004858,24.9643185 C2.30864139,25.0769387 2.51964605,25.1770466 2.70582676,25.2896688 C3.22713286,25.5899906 3.72361476,25.9278551 4.17044827,26.3282849 C4.87793508,26.7662554 5.54818583,27.2417666 6.23084845,27.7047636 C6.4542652,27.7673308 6.6900943,27.8173838 6.91351106,27.879951 C8.30365953,28.2678685 9.54486524,29.1312953 10.6743604,30.044777 C10.8357174,29.9571833 11.1758745,29.9427444 11.3248196,29.8301242 C12.2929597,29.0793176 12.898547,27.7863656 13.3453815,26.5475356 C13.8542743,25.121002 13.7723004,22.4131599 12.1214986,21.7749754 Z" id="Path" fill="#2B2B2B"/>
                <path d="M19.4248539,29.6068065 C19.9709833,29.2439174 20.5047017,28.8810264 21.0508329,28.5306497 C20.8398285,27.3543868 20.6164113,26.1781221 20.3433466,25.0143715 L20.3433466,25.0143715 C20.2936992,24.8141557 20.2440498,24.6014275 20.1944024,24.4012136 C20.1819896,24.3636729 20.1695787,24.3136199 20.1695787,24.2760792 C20.1199313,24.1008917 20.0826948,23.9382166 20.0330454,23.7630273 L20.0082217,23.6629193 C19.9585743,23.4752177 19.908925,23.2875161 19.8592775,23.0998144 L19.8468647,23.0622737 C19.7848045,22.8620579 19.7227443,22.6493297 19.660684,22.4491158 L19.660684,22.4491158 C19.6234475,22.4366016 19.5738001,22.4491158 19.5489763,22.4741423 C18.9780214,22.8745721 19.3007354,26.2156609 18.9035503,29.9571814 C19.0773162,29.8445611 19.251086,29.7319409 19.4248539,29.6068065 Z" id="Path" fill="#FFFFFF"/>
            </g>
            <path d="M13.7153121,21.0601248 C13.5043077,20.859909 13.2684786,20.6847215 13.0078258,20.5220464 C12.2755148,20.0965901 11.4314961,19.88386 10.5750646,19.9088885 L10.5254162,19.9088885 C9.64416106,19.9589415 9.11044264,20.0840759 8.58913702,20.2968059 L8.50225307,20.3343467 C8.57672517,20.4594811 8.52707678,20.6221562 8.40295631,20.6972357 C8.39054444,20.6972357 8.3781326,20.7097499 8.3781326,20.7097499 C8.03059488,20.8849374 7.78235488,21.1852611 7.36034508,21.1727469 C7.18657623,21.1727469 7.05004389,21.022586 7.05004389,20.8473967 C7.05004389,20.8223702 7.05004389,20.7973436 7.06245576,20.7723152 C7.17416437,20.3343447 7.5465258,20.0089945 7.88165071,19.7336991 C8.19195095,19.470916 8.56431238,19.3207551 8.96149846,19.2957286 C8.93667475,19.2707021 8.91185008,19.2456756 8.88702636,19.2206472 L8.86220265,19.1956207 L8.86220265,19.1956207 C8.63878541,19.0079191 8.40295727,18.8452439 8.12989166,18.7326237 L7.01280785,18.2195718 L7.39758114,17.2810636 L6.11914034,16.680418 L5.73436705,17.6314404 C5.33718143,17.4437387 4.93999583,17.2184964 4.51798649,17.1058762 C3.98426855,16.9557152 3.42572641,16.943201 2.87959612,17.0558232 C2.55688283,17.1183904 2.24658165,17.2310106 1.96110465,17.3811734 C1.43979868,17.668983 0.980552885,18.0443863 0.595779424,18.5073833 L0.558543256,18.5574363 C0.558543256,18.6200035 0.546131221,18.6825707 0.533719186,18.7326237 C0.583367388,18.8702723 0.608191459,19.0204333 0.608191459,19.1705942 C0.608191459,20.296804 0.546131221,21.4980953 0.645427626,22.6243051 C0.719899899,22.5742521 0.794372234,22.5241972 0.881256542,22.4866565 C1.29085414,22.2739284 1.43979868,22.6618439 1.1170854,22.8870863 C1.04261306,22.9371393 0.980552885,22.9997065 0.906080612,23.0622737 C0.980552885,23.1373551 1.04261318,23.2249488 1.09226133,23.3250568 C1.2039697,23.5502991 1.29085414,23.7755415 1.37773844,24.0132961 C1.45221078,24.163457 1.53909509,24.3011057 1.63839137,24.4387524 C1.78733591,24.3511587 1.94869256,24.263565 2.09763723,24.1759693 C2.06040118,24.0508349 2.12246142,23.9131863 2.24658189,23.8631333 C2.50723494,23.750513 4.65451883,22.8120049 4.96482002,22.6743562 C5.46130192,22.4491139 5.94537196,22.2488999 6.45426572,22.0611983 C7.53411396,21.6732808 8.67602195,21.4355262 9.81792995,21.3479325 C10.711597,21.2978794 11.7169736,21.3354182 12.4368718,21.9360639 C12.7719967,22.2488999 13.0574742,22.6243032 13.2560667,23.0497595 C13.479484,23.5002442 13.5911916,24.5889133 13.6036045,24.7015335 C13.640841,25.1770447 13.4174237,25.6650682 13.3057151,26.1280652 C13.1940065,26.528495 13.0450623,26.9164125 12.8712935,27.2918158 C12.4865202,28.1677568 12.0396867,29.006157 11.2701391,29.6193169 C11.2204908,29.6568576 11.1708424,29.6818841 11.1087821,29.6943983 L11.1087821,29.6943983 L11.0715456,29.731939 C10.959837,29.8570734 10.8481284,29.9696937 10.7115961,30.0698016 L10.8481284,30.1824218 C11.5928512,29.982206 12.3003376,29.6318311 12.9085281,29.1563199 C13.7153112,28.493107 14.2738533,27.5545988 14.621391,26.5660377 C14.8944557,25.8277453 15.0434008,25.0519103 15.0434008,24.263565 C15.0806373,23.0622756 14.5841554,21.8985251 13.7153121,21.0601248 Z" id="Path" fill="#7DC960"/>
            <path d="M13.6036035,23.0622756 C13.479483,22.5367114 13.2064183,22.0612002 12.8340569,21.6732827 C12.4368718,21.2978794 11.9403899,21.0476106 11.4066714,20.9349904 C10.9846616,20.8473967 10.5626518,20.7848295 10.140643,20.7723152 C9.74345784,20.7472887 9.33385988,20.7472887 8.96149846,20.6221543 C8.86220169,20.5971278 8.76290588,20.5345606 8.6884338,20.4594792 C8.66361009,20.4094262 8.62637356,20.3593712 8.6139617,20.3093182 C8.46501751,20.3593712 7.85682746,20.6972357 7.65823442,20.8724232 C7.64582256,20.8849374 7.63341023,20.8974497 7.60858605,20.9099639 C7.55893767,20.9475046 7.48446557,20.9600169 7.42240533,20.9099639 C7.36034509,20.8599109 7.38516929,20.7472887 7.40999347,20.709748 L7.40999347,20.709748 L7.40999347,20.709748 C7.53411395,20.5095322 7.67064628,20.3343448 7.83200327,20.1716696 C7.99335932,20.0089945 8.16712817,19.8713478 8.35330888,19.7462133 C8.52707774,19.6335931 8.7008466,19.5334852 8.88702731,19.4458915 C8.93667569,19.420865 8.99873593,19.3958385 9.06079617,19.37081 L9.06079617,19.37081 C9.01114779,19.320757 8.9614994,19.2707021 8.91185198,19.2206491 L8.88702827,19.1956226 L8.88702827,19.1956226 C8.76290779,19.0955147 7.39758304,19.1705961 6.72733228,20.3718855 C6.23085038,21.2353122 5.85848896,22.2363877 4.00909369,22.924627 C3.54984783,22.5367095 2.97889384,22.3239814 2.38311541,22.3114691 C1.91145758,22.3364956 1.46462394,22.5492237 1.15432275,22.8996005 C1.09226252,22.9621677 1.01779018,23.0122207 0.943317971,23.0747879 C1.01779031,23.1498693 1.07985054,23.2499754 1.11708659,23.337571 C1.22879496,23.5628133 1.3156794,23.7880557 1.4025637,24.0258103 C1.47703604,24.1759713 1.56392035,24.3136199 1.66321675,24.4512666 C3.26437084,23.5377849 4.96482145,22.7869784 6.72733253,22.2363877 C7.40999515,22.0111453 9.12285666,21.5106076 10.3888861,21.5106076 C10.885368,21.5106076 11.3942617,21.6107155 11.8535081,21.7984172 L11.8907446,21.8109314 C13.5415473,22.4491177 13.6780796,25.1269937 13.1691859,26.5410131 C12.7223524,27.7798431 12.1141618,28.9686202 11.1460227,29.7194267 L11.1087862,29.7569674 L11.1708464,29.7444532 C11.2577304,29.7194267 11.3446153,29.6693718 11.4314992,29.631833 C11.6300918,29.5192128 11.8162725,29.3815642 11.9776295,29.2314032 C12.3996393,28.8309735 12.7595889,28.3554623 13.0326535,27.8298981 C13.3677784,27.2042259 13.6036075,26.5285008 13.727728,25.8402614 C13.8890809,24.9142655 13.8518444,23.9632431 13.6036035,23.0622756 Z" id="Path" fill="#6CB24F"/>
            <path d="M27.070676,23.6879478 C26.6362543,24.3261341 26.0777122,24.8642106 25.4074624,25.2521281 L17.141038,30.0572912 C15.5647083,30.9707729 13.6284281,30.9707729 12.0520985,30.0572912 L3.78567595,25.25213 C2.20934487,24.3386464 1.24120526,22.6493316 1.24120526,20.8098559 L1.24120526,15.9170991 C0.831607669,16.067262 0.422010075,16.2299371 5.08894004e-07,16.3425573 L5.08894004e-07,20.8098559 C0.0124125564,23.0873021 1.21638119,25.1895609 3.16507263,26.3407972 L11.4314951,31.1459584 C13.392599,32.2846805 15.8005365,32.2846805 17.7616403,31.1459584 L26.0280647,26.3407972 C27.0955016,25.7151251 27.9519321,24.8016434 28.5104743,23.6879478 L27.070676,23.6879478 Z" id="Path" fill="#FFFFFF"/>
        </g>
    </g>
</svg>